<?xml version="1.0" encoding="UTF-8" standalone="no"?>
<!DOCTYPE svg PUBLIC "-//W3C//DTD SVG 1.1//EN"
 "http://www.w3.org/Graphics/SVG/1.1/DTD/svg11.dtd">
<!-- Generated by graphviz version 3.0.0 (20220226.1711)
 -->
<!-- Title: dependencies Pages: 1 -->
<svg width="610pt" height="247pt"
 viewBox="0.00 0.00 610.00 246.80" xmlns="http://www.w3.org/2000/svg" xmlns:xlink="http://www.w3.org/1999/xlink">
<g id="graph0" class="graph" transform="scale(1 1) rotate(0) translate(4 242.8)">
<title>dependencies</title>
<polygon fill="white" stroke="transparent" points="-4,4 -4,-242.8 606,-242.8 606,4 -4,4"/>
<text text-anchor="middle" x="301" y="-8.2" font-family="sans-serif" font-size="14.00">dependencies</text>
<g id="clust1" class="cluster">
<title>cluster_AuthModule</title>
<polygon fill="none" stroke="black" stroke-dasharray="1,5" points="8,-32.8 8,-230.8 594,-230.8 594,-32.8 8,-32.8"/>
</g>
<g id="clust3" class="cluster">
<title>cluster_AuthModule_imports</title>
<polygon fill="none" stroke="black" points="478,-40.8 478,-92.8 586,-92.8 586,-40.8 478,-40.8"/>
</g>
<g id="clust4" class="cluster">
<title>cluster_AuthModule_exports</title>
<polygon fill="none" stroke="black" points="201,-170.8 201,-222.8 439,-222.8 439,-170.8 201,-170.8"/>
</g>
<g id="clust6" class="cluster">
<title>cluster_AuthModule_providers</title>
<polygon fill="none" stroke="black" points="16,-40.8 16,-92.8 470,-92.8 470,-40.8 16,-40.8"/>
</g>
<!-- UsersModule -->
<g id="node1" class="node">
<title>UsersModule</title>
<polygon fill="#8dd3c7" stroke="black" points="577.94,-84.8 574.94,-88.8 553.94,-88.8 550.94,-84.8 486.06,-84.8 486.06,-48.8 577.94,-48.8 577.94,-84.8"/>
<text text-anchor="middle" x="532" y="-62.6" font-family="Times,serif" font-size="14.00">UsersModule</text>
</g>
<!-- AuthModule -->
<g id="node2" class="node">
<title>AuthModule</title>
<polygon fill="#8dd3c7" stroke="black" points="369.55,-149.8 366.55,-153.8 345.55,-153.8 342.55,-149.8 282.45,-149.8 282.45,-113.8 369.55,-113.8 369.55,-149.8"/>
<text text-anchor="middle" x="326" y="-127.6" font-family="Times,serif" font-size="14.00">AuthModule</text>
</g>
<!-- UsersModule&#45;&gt;AuthModule -->
<g id="edge1" class="edge">
<title>UsersModule&#45;&gt;AuthModule</title>
<path fill="none" stroke="black" d="M532,-84.91C532,-104.14 532,-131.8 532,-131.8 532,-131.8 379.69,-131.8 379.69,-131.8"/>
<polygon fill="black" stroke="black" points="379.69,-128.3 369.69,-131.8 379.69,-135.3 379.69,-128.3"/>
</g>
<!-- AuthService  -->
<g id="node3" class="node">
<title>AuthService </title>
<polygon fill="#fb8072" stroke="black" points="430.98,-214.8 341.02,-214.8 341.02,-178.8 430.98,-178.8 430.98,-214.8"/>
<text text-anchor="middle" x="386" y="-192.6" font-family="Times,serif" font-size="14.00">AuthService </text>
</g>
<!-- AuthModule&#45;&gt;AuthService  -->
<g id="edge2" class="edge">
<title>AuthModule&#45;&gt;AuthService </title>
<path fill="none" stroke="black" stroke-dasharray="5,2" d="M355.52,-149.91C355.52,-149.91 355.52,-168.79 355.52,-168.79"/>
<polygon fill="black" stroke="black" points="352.02,-168.79 355.52,-178.79 359.02,-168.79 352.02,-168.79"/>
</g>
<!-- LocalAuthGuard  -->
<g id="node4" class="node">
<title>LocalAuthGuard </title>
<polygon fill="#fb8072" stroke="black" points="323.36,-214.8 208.64,-214.8 208.64,-178.8 323.36,-178.8 323.36,-214.8"/>
<text text-anchor="middle" x="266" y="-192.6" font-family="Times,serif" font-size="14.00">LocalAuthGuard </text>
</g>
<!-- AuthModule&#45;&gt;LocalAuthGuard  -->
<g id="edge3" class="edge">
<title>AuthModule&#45;&gt;LocalAuthGuard </title>
<path fill="none" stroke="black" stroke-dasharray="5,2" d="M302.7,-149.91C302.7,-149.91 302.7,-168.79 302.7,-168.79"/>
<polygon fill="black" stroke="black" points="299.2,-168.79 302.7,-178.79 306.2,-168.79 299.2,-168.79"/>
</g>
<!-- AuthService -->
<g id="node5" class="node">
<title>AuthService</title>
<ellipse fill="#fdb462" stroke="black" cx="403" cy="-66.8" rx="59.11" ry="18"/>
<text text-anchor="middle" x="403" y="-62.6" font-family="Times,serif" font-size="14.00">AuthService</text>
</g>
<!-- AuthService&#45;&gt;AuthModule -->
<g id="edge4" class="edge">
<title>AuthService&#45;&gt;AuthModule</title>
<path fill="none" stroke="black" d="M356.73,-78.12C356.73,-78.12 356.73,-103.74 356.73,-103.74"/>
<polygon fill="black" stroke="black" points="353.23,-103.74 356.73,-113.74 360.23,-103.74 353.23,-103.74"/>
</g>
<!-- LocalAuthGuard -->
<g id="node6" class="node">
<title>LocalAuthGuard</title>
<ellipse fill="#fdb462" stroke="black" cx="249" cy="-66.8" rx="76.43" ry="18"/>
<text text-anchor="middle" x="249" y="-62.6" font-family="Times,serif" font-size="14.00">LocalAuthGuard</text>
</g>
<!-- LocalAuthGuard&#45;&gt;AuthModule -->
<g id="edge5" class="edge">
<title>LocalAuthGuard&#45;&gt;AuthModule</title>
<path fill="none" stroke="black" d="M303.85,-79.64C303.85,-79.64 303.85,-103.32 303.85,-103.32"/>
<polygon fill="black" stroke="black" points="300.35,-103.32 303.85,-113.32 307.35,-103.32 300.35,-103.32"/>
</g>
<!-- LocalStrategy -->
<g id="node7" class="node">
<title>LocalStrategy</title>
<ellipse fill="#fdb462" stroke="black" cx="89" cy="-66.8" rx="65.4" ry="18"/>
<text text-anchor="middle" x="89" y="-62.6" font-family="Times,serif" font-size="14.00">LocalStrategy</text>
</g>
<!-- LocalStrategy&#45;&gt;AuthModule -->
<g id="edge6" class="edge">
<title>LocalStrategy&#45;&gt;AuthModule</title>
<path fill="none" stroke="black" d="M89,-84.91C89,-104.14 89,-131.8 89,-131.8 89,-131.8 272.25,-131.8 272.25,-131.8"/>
<polygon fill="black" stroke="black" points="272.25,-135.3 282.25,-131.8 272.25,-128.3 272.25,-135.3"/>
</g>
</g>
</svg>
