<?xml version="1.0" encoding="UTF-8" standalone="no"?>
<!DOCTYPE svg PUBLIC "-//W3C//DTD SVG 1.1//EN"
 "http://www.w3.org/Graphics/SVG/1.1/DTD/svg11.dtd">
<!-- Generated by graphviz version 3.0.0 (20220226.1711)
 -->
<!-- Title: dependencies Pages: 1 -->
<svg width="387pt" height="174pt"
 viewBox="0.00 0.00 387.00 173.80" xmlns="http://www.w3.org/2000/svg" xmlns:xlink="http://www.w3.org/1999/xlink">
<g id="graph0" class="graph" transform="scale(1 1) rotate(0) translate(4 169.8)">
<title>dependencies</title>
<polygon fill="white" stroke="transparent" points="-4,4 -4,-169.8 383,-169.8 383,4 -4,4"/>
<text text-anchor="middle" x="189.5" y="-8.2" font-family="sans-serif" font-size="14.00">dependencies</text>
<g id="clust1" class="cluster">
<title>cluster_OrdersModule</title>
<polygon fill="none" stroke="black" stroke-dasharray="1,5" points="8,-32.8 8,-157.8 371,-157.8 371,-32.8 8,-32.8"/>
</g>
<g id="clust6" class="cluster">
<title>cluster_OrdersModule_providers</title>
<polygon fill="none" stroke="black" points="16,-40.8 16,-92.8 363,-92.8 363,-40.8 16,-40.8"/>
</g>
<!-- CreateOrderListener -->
<g id="node1" class="node">
<title>CreateOrderListener</title>
<ellipse fill="#fdb462" stroke="black" cx="265" cy="-66.8" rx="90.29" ry="18"/>
<text text-anchor="middle" x="265" y="-62.6" font-family="Times,serif" font-size="14.00">CreateOrderListener</text>
</g>
<!-- OrdersModule -->
<g id="node3" class="node">
<title>OrdersModule</title>
<polygon fill="#8dd3c7" stroke="black" points="225.65,-149.8 222.65,-153.8 201.65,-153.8 198.65,-149.8 128.35,-149.8 128.35,-113.8 225.65,-113.8 225.65,-149.8"/>
<text text-anchor="middle" x="177" y="-127.6" font-family="Times,serif" font-size="14.00">OrdersModule</text>
</g>
<!-- CreateOrderListener&#45;&gt;OrdersModule -->
<g id="edge1" class="edge">
<title>CreateOrderListener&#45;&gt;OrdersModule</title>
<path fill="none" stroke="black" d="M200.21,-79.64C200.21,-79.64 200.21,-103.32 200.21,-103.32"/>
<polygon fill="black" stroke="black" points="196.71,-103.32 200.21,-113.32 203.71,-103.32 196.71,-103.32"/>
</g>
<!-- OrdersService -->
<g id="node2" class="node">
<title>OrdersService</title>
<ellipse fill="#fdb462" stroke="black" cx="90" cy="-66.8" rx="66.04" ry="18"/>
<text text-anchor="middle" x="90" y="-62.6" font-family="Times,serif" font-size="14.00">OrdersService</text>
</g>
<!-- OrdersService&#45;&gt;OrdersModule -->
<g id="edge2" class="edge">
<title>OrdersService&#45;&gt;OrdersModule</title>
<path fill="none" stroke="black" d="M142.22,-78.12C142.22,-78.12 142.22,-103.74 142.22,-103.74"/>
<polygon fill="black" stroke="black" points="138.72,-103.74 142.22,-113.74 145.72,-103.74 138.72,-103.74"/>
</g>
</g>
</svg>
