<?xml version="1.0" encoding="UTF-8" standalone="no"?>
<!DOCTYPE svg PUBLIC "-//W3C//DTD SVG 1.1//EN"
 "http://www.w3.org/Graphics/SVG/1.1/DTD/svg11.dtd">
<!-- Generated by graphviz version 3.0.0 (20220226.1711)
 -->
<!-- Title: dependencies Pages: 1 -->
<svg width="738pt" height="174pt"
 viewBox="0.00 0.00 738.00 173.80" xmlns="http://www.w3.org/2000/svg" xmlns:xlink="http://www.w3.org/1999/xlink">
<g id="graph0" class="graph" transform="scale(1 1) rotate(0) translate(4 169.8)">
<title>dependencies</title>
<polygon fill="white" stroke="transparent" points="-4,4 -4,-169.8 734,-169.8 734,4 -4,4"/>
<text text-anchor="middle" x="365" y="-8.2" font-family="sans-serif" font-size="14.00">dependencies</text>
<g id="clust1" class="cluster">
<title>cluster_AppModule</title>
<polygon fill="none" stroke="black" stroke-dasharray="1,5" points="8,-32.8 8,-157.8 722,-157.8 722,-32.8 8,-32.8"/>
</g>
<g id="clust6" class="cluster">
<title>cluster_AppModule_providers</title>
<polygon fill="none" stroke="black" points="584,-40.8 584,-92.8 714,-92.8 714,-40.8 584,-40.8"/>
</g>
<g id="clust3" class="cluster">
<title>cluster_AppModule_imports</title>
<polygon fill="none" stroke="black" points="16,-40.8 16,-92.8 576,-92.8 576,-40.8 16,-40.8"/>
</g>
<!-- AuthModule -->
<g id="node1" class="node">
<title>AuthModule</title>
<polygon fill="#8dd3c7" stroke="black" points="567.55,-84.8 564.55,-88.8 543.55,-88.8 540.55,-84.8 480.45,-84.8 480.45,-48.8 567.55,-48.8 567.55,-84.8"/>
<text text-anchor="middle" x="524" y="-62.6" font-family="Times,serif" font-size="14.00">AuthModule</text>
</g>
<!-- AppModule -->
<g id="node6" class="node">
<title>AppModule</title>
<polygon fill="#8dd3c7" stroke="black" points="394.66,-149.8 391.66,-153.8 370.66,-153.8 367.66,-149.8 311.34,-149.8 311.34,-113.8 394.66,-113.8 394.66,-149.8"/>
<text text-anchor="middle" x="353" y="-127.6" font-family="Times,serif" font-size="14.00">AppModule</text>
</g>
<!-- AuthModule&#45;&gt;AppModule -->
<g id="edge1" class="edge">
<title>AuthModule&#45;&gt;AppModule</title>
<path fill="none" stroke="black" d="M524,-84.82C524,-102.17 524,-125.8 524,-125.8 524,-125.8 404.83,-125.8 404.83,-125.8"/>
<polygon fill="black" stroke="black" points="404.83,-122.3 394.83,-125.8 404.83,-129.3 404.83,-122.3"/>
</g>
<!-- AuthorsModule -->
<g id="node2" class="node">
<title>AuthorsModule</title>
<polygon fill="#8dd3c7" stroke="black" points="462.16,-84.8 459.16,-88.8 438.16,-88.8 435.16,-84.8 357.84,-84.8 357.84,-48.8 462.16,-48.8 462.16,-84.8"/>
<text text-anchor="middle" x="410" y="-62.6" font-family="Times,serif" font-size="14.00">AuthorsModule</text>
</g>
<!-- AuthorsModule&#45;&gt;AppModule -->
<g id="edge2" class="edge">
<title>AuthorsModule&#45;&gt;AppModule</title>
<path fill="none" stroke="black" d="M376.25,-84.91C376.25,-84.91 376.25,-103.79 376.25,-103.79"/>
<polygon fill="black" stroke="black" points="372.75,-103.79 376.25,-113.79 379.75,-103.79 372.75,-103.79"/>
</g>
<!-- CatsModule -->
<g id="node3" class="node">
<title>CatsModule</title>
<polygon fill="#8dd3c7" stroke="black" points="339.44,-84.8 336.44,-88.8 315.44,-88.8 312.44,-84.8 254.56,-84.8 254.56,-48.8 339.44,-48.8 339.44,-84.8"/>
<text text-anchor="middle" x="297" y="-62.6" font-family="Times,serif" font-size="14.00">CatsModule</text>
</g>
<!-- CatsModule&#45;&gt;AppModule -->
<g id="edge3" class="edge">
<title>CatsModule&#45;&gt;AppModule</title>
<path fill="none" stroke="black" d="M325.19,-84.91C325.19,-84.91 325.19,-103.79 325.19,-103.79"/>
<polygon fill="black" stroke="black" points="321.69,-103.79 325.19,-113.79 328.69,-103.79 321.69,-103.79"/>
</g>
<!-- HealthModule -->
<g id="node4" class="node">
<title>HealthModule</title>
<polygon fill="#8dd3c7" stroke="black" points="236.37,-84.8 233.37,-88.8 212.37,-88.8 209.37,-84.8 139.63,-84.8 139.63,-48.8 236.37,-48.8 236.37,-84.8"/>
<text text-anchor="middle" x="188" y="-62.6" font-family="Times,serif" font-size="14.00">HealthModule</text>
</g>
<!-- HealthModule&#45;&gt;AppModule -->
<g id="edge4" class="edge">
<title>HealthModule&#45;&gt;AppModule</title>
<path fill="none" stroke="black" d="M188,-84.82C188,-102.17 188,-125.8 188,-125.8 188,-125.8 300.94,-125.8 300.94,-125.8"/>
<polygon fill="black" stroke="black" points="300.94,-129.3 310.94,-125.8 300.94,-122.3 300.94,-129.3"/>
</g>
<!-- OrdersModule -->
<g id="node5" class="node">
<title>OrdersModule</title>
<polygon fill="#8dd3c7" stroke="black" points="121.65,-84.8 118.65,-88.8 97.65,-88.8 94.65,-84.8 24.35,-84.8 24.35,-48.8 121.65,-48.8 121.65,-84.8"/>
<text text-anchor="middle" x="73" y="-62.6" font-family="Times,serif" font-size="14.00">OrdersModule</text>
</g>
<!-- OrdersModule&#45;&gt;AppModule -->
<g id="edge5" class="edge">
<title>OrdersModule&#45;&gt;AppModule</title>
<path fill="none" stroke="black" d="M73,-85.08C73,-106.12 73,-137.8 73,-137.8 73,-137.8 301.08,-137.8 301.08,-137.8"/>
<polygon fill="black" stroke="black" points="301.08,-141.3 311.08,-137.8 301.08,-134.3 301.08,-141.3"/>
</g>
<!-- AppService -->
<g id="node7" class="node">
<title>AppService</title>
<ellipse fill="#fdb462" stroke="black" cx="649" cy="-66.8" rx="56.75" ry="18"/>
<text text-anchor="middle" x="649" y="-62.6" font-family="Times,serif" font-size="14.00">AppService</text>
</g>
<!-- AppService&#45;&gt;AppModule -->
<g id="edge6" class="edge">
<title>AppService&#45;&gt;AppModule</title>
<path fill="none" stroke="black" d="M649,-85.08C649,-106.12 649,-137.8 649,-137.8 649,-137.8 404.78,-137.8 404.78,-137.8"/>
<polygon fill="black" stroke="black" points="404.78,-134.3 394.78,-137.8 404.78,-141.3 404.78,-134.3"/>
</g>
</g>
</svg>
