<?xml version="1.0" encoding="UTF-8" standalone="no"?>
<!DOCTYPE svg PUBLIC "-//W3C//DTD SVG 1.1//EN"
 "http://www.w3.org/Graphics/SVG/1.1/DTD/svg11.dtd">
<!-- Generated by graphviz version 3.0.0 (20220226.1711)
 -->
<!-- Title: dependencies Pages: 1 -->
<svg width="146pt" height="247pt"
 viewBox="0.00 0.00 146.00 246.80" xmlns="http://www.w3.org/2000/svg" xmlns:xlink="http://www.w3.org/1999/xlink">
<g id="graph0" class="graph" transform="scale(1 1) rotate(0) translate(4 242.8)">
<title>dependencies</title>
<polygon fill="white" stroke="transparent" points="-4,4 -4,-242.8 142,-242.8 142,4 -4,4"/>
<text text-anchor="middle" x="69" y="-8.2" font-family="sans-serif" font-size="14.00">dependencies</text>
<g id="clust1" class="cluster">
<title>cluster_LazyModule</title>
<polygon fill="none" stroke="black" stroke-dasharray="1,5" points="8,-32.8 8,-230.8 130,-230.8 130,-32.8 8,-32.8"/>
</g>
<g id="clust4" class="cluster">
<title>cluster_LazyModule_exports</title>
<polygon fill="none" stroke="black" points="16,-170.8 16,-222.8 122,-222.8 122,-170.8 16,-170.8"/>
</g>
<g id="clust3" class="cluster">
<title>cluster_LazyModule_imports</title>
<polygon fill="none" stroke="black" points="18,-40.8 18,-92.8 120,-92.8 120,-40.8 18,-40.8"/>
</g>
<!-- LazyService -->
<g id="node1" class="node">
<title>LazyService</title>
<polygon fill="#8dd3c7" stroke="black" points="111.96,-84.8 108.96,-88.8 87.96,-88.8 84.96,-84.8 26.04,-84.8 26.04,-48.8 111.96,-48.8 111.96,-84.8"/>
<text text-anchor="middle" x="69" y="-62.6" font-family="Times,serif" font-size="14.00">LazyService</text>
</g>
<!-- LazyModule -->
<g id="node2" class="node">
<title>LazyModule</title>
<polygon fill="#8dd3c7" stroke="black" points="112.53,-149.8 109.53,-153.8 88.53,-153.8 85.53,-149.8 25.47,-149.8 25.47,-113.8 112.53,-113.8 112.53,-149.8"/>
<text text-anchor="middle" x="69" y="-127.6" font-family="Times,serif" font-size="14.00">LazyModule</text>
</g>
<!-- LazyService&#45;&gt;LazyModule -->
<g id="edge1" class="edge">
<title>LazyService&#45;&gt;LazyModule</title>
<path fill="none" stroke="black" d="M69,-84.91C69,-84.91 69,-103.79 69,-103.79"/>
<polygon fill="black" stroke="black" points="65.5,-103.79 69,-113.79 72.5,-103.79 65.5,-103.79"/>
</g>
<!-- LazyService  -->
<g id="node3" class="node">
<title>LazyService </title>
<polygon fill="#fb8072" stroke="black" points="113.96,-214.8 24.04,-214.8 24.04,-178.8 113.96,-178.8 113.96,-214.8"/>
<text text-anchor="middle" x="69" y="-192.6" font-family="Times,serif" font-size="14.00">LazyService </text>
</g>
<!-- LazyModule&#45;&gt;LazyService  -->
<g id="edge2" class="edge">
<title>LazyModule&#45;&gt;LazyService </title>
<path fill="none" stroke="black" stroke-dasharray="5,2" d="M69,-149.91C69,-149.91 69,-168.79 69,-168.79"/>
<polygon fill="black" stroke="black" points="65.5,-168.79 69,-178.79 72.5,-168.79 65.5,-168.79"/>
</g>
</g>
</svg>
